<?xml version="1.0" encoding="utf-8"?>
<!-- Generator: Adobe Illustrator 27.0.0, SVG Export Plug-In . SVG Version: 6.00 Build 0)  -->
<svg version="1.1" id="Warstwa_1" xmlns="http://www.w3.org/2000/svg" xmlns:xlink="http://www.w3.org/1999/xlink" x="0px" y="0px"
	 viewBox="0 0 88 149.8" style="enable-background:new 0 0 88 149.8;" xml:space="preserve">
<style type="text/css">
	.st0{fill:#0D3070;}
</style>
<path class="st0" d="M86,74.3L10.1,2.1c-1.9-1.8-4.8-2-6.9-0.3c-1.2,0.9-2,2.4-2,3.9C1,7.3,1.6,8.8,2.8,9.8l71.8,67.8L2.8,139.8
	c-1.1,1-1.8,2.4-1.8,4s0.6,3,1.8,4l0,0c1,0.9,2.2,1.3,3.5,1.3c1.2,0,2.5-0.4,3.5-1.3l76-66.2c1.1-0.9,1.8-2.3,1.8-3.7
	C87.6,76.6,87,75.2,86,74.3z"/>
</svg>
