<?xml version="1.0" encoding="utf-8"?>
<!-- Generator: Adobe Illustrator 27.0.0, SVG Export Plug-In . SVG Version: 6.00 Build 0)  -->
<svg version="1.1" id="Warstwa_2_00000159446448488853323970000005983554394715424128_"
	 xmlns="http://www.w3.org/2000/svg" xmlns:xlink="http://www.w3.org/1999/xlink" x="0px" y="0px" viewBox="0 0 230.7 198.7"
	 style="enable-background:new 0 0 230.7 198.7;" xml:space="preserve">
<style type="text/css">
	.st0{fill:#0D3070;}
	.st1{fill:#FFFFFF;}
</style>
<circle class="st0" cx="118" cy="100" r="97"/>
<path class="st1" d="M178.5,49.7c0-0.8-0.6-1.4-1.4-1.4H175c-0.8,0-1.4,0.6-1.4,1.4v43.5v0.1c0.3,3.2,0,6.5-0.8,9.7
	c-0.4,1.4-1.1,3.5-2.2,5.8c-4.4,8.6-13.2,13.9-22.8,13.9c-2.5,0-4.9-0.4-7.3-1.1h-0.1c-4.2-1.3-6.9-3.6-8.5-4.9
	c-5.8-5-8.6-11.5-9.8-16v-0.1c-2.2-6.2-4.4-12.4-6.6-18.7c-2.2-6.2-4.4-12.4-6.6-18.6c-0.1-0.2-0.1-0.3-0.3-0.4
	c-3.8-9.8-13.5-16.4-24.1-16.4c-14.3,0-25.8,11.6-25.8,25.9v74.9c0,0.8,0.6,1.4,1.4,1.4H62c0.8,0,1.4-0.6,1.4-1.4V101
	c0-4.3,1.1-8.6,3.2-12.4c4.5-8.2,13.2-13.4,22.7-13.4c6.4,0,12.5,2.3,17.2,6.5c2.9,2.6,5.1,5.7,6.5,9c2.6,7.5,5.3,15,8,22.5
	s5.3,14.9,8,22.4c0.1,0.3,0.3,0.6,0.6,0.7c4.5,8.7,13.2,14.1,23.1,14.1c14,0,25.4-11.2,25.8-25c0.1-0.2,0.2-0.5,0.2-0.7L178.5,49.7z
	"/>
</svg>
