<?xml version="1.0" encoding="utf-8"?>
<!-- Generator: Adobe Illustrator 27.0.0, SVG Export Plug-In . SVG Version: 6.00 Build 0)  -->
<svg version="1.1" id="Warstwa_1" xmlns="http://www.w3.org/2000/svg" xmlns:xlink="http://www.w3.org/1999/xlink" x="0px" y="0px"
	 viewBox="0 0 800 279" style="enable-background:new 0 0 800 279;" xml:space="preserve">
<style type="text/css">
	.st0{fill:#0D3070;}
	.st1{fill:#8AB3FF;}
</style>
<path class="st0" d="M752.5,37.3c-12.8,14.3-26.1,29.2-52.7,29.2c-26.6,0-39.9-14.8-52.7-29.2c-12.3-13.8-24-26.8-47.5-26.8
	s-35.1,13-47.5,26.8c-12.8,14.3-26.1,29.2-52.7,29.2s-39.9-14.8-52.7-29.2c-12.3-13.8-24-26.8-47.5-26.8s-35.1,13-47.5,26.8
	c-12.8,14.3-26.1,29.2-52.7,29.2s-39.9-14.8-52.7-29.2c-12.3-13.8-24-26.8-47.5-26.8s-35.1,13-47.5,26.8
	C139,51.7,125.7,66.5,99.1,66.5S59.2,51.7,46.4,37.3C34.3,23.7,22.8,10.9,0,10.5V254h800V10.5C776.5,10.5,764.9,23.5,752.5,37.3z"/>
<path class="st1" d="M779.6,7c-14,5.2-23.2,15.6-32.3,25.7c-12.3,13.8-24,26.8-47.5,26.8s-35.1-13-47.5-26.8
	C643.3,22.6,634,12.3,620,7c-5.9-2.2-12.6-3.5-20.4-3.5c-7.9,0-14.6,1.3-20.4,3.5c-14,5.2-23.2,15.6-32.3,25.7
	c-12.3,13.8-24,26.8-47.5,26.8s-35.1-13-47.5-26.8c-9-10.1-18.3-20.4-32.3-25.7c-5.9-2.2-12.6-3.5-20.4-3.5S384.9,4.8,379.1,7
	c-14,5.2-23.2,15.6-32.3,25.7c-12.3,13.8-24,26.8-47.5,26.8s-35.1-13-47.5-26.8c-9-10.1-18.3-20.4-32.3-25.7
	c-5.9-2.2-12.6-3.5-20.4-3.5S184.7,4.8,178.8,7c-14,5.2-23.2,15.6-32.3,25.7c-12.3,13.8-24,26.8-47.5,26.8s-35.1-13-47.5-26.8
	C42.6,22.6,33.4,12.2,19.4,7C13.6,4.8,6.9,3.5-1,3.5v7c0.3,0,0.7,0,1,0c22.8,0.4,34.3,13.2,46.5,26.8c12.8,14.3,26.1,29.2,52.7,29.2
	s39.9-14.8,52.7-29.2c12.3-13.8,24-26.8,47.5-26.8s35.1,13,47.5,26.8c12.8,14.3,26.1,29.2,52.7,29.2s39.9-14.8,52.7-29.2
	c12.3-13.8,24-26.8,47.5-26.8s35.1,13,47.5,26.8c12.8,14.3,26.1,29.2,52.7,29.2s39.9-14.8,52.7-29.2c12.3-13.8,24-26.8,47.5-26.8
	s35.1,13,47.5,26.8c12.8,14.3,26.1,29.2,52.7,29.2c26.6,0,39.9-14.8,52.7-29.2c12.3-13.8,24-26.8,47.5-26.8V7V3.5
	C792.1,3.5,785.4,4.8,779.6,7z"/>
</svg>
